# xmcd
#
# Track frame offsets:
#	150
#	12290
#	39415
#	66930
#	92397
#	113172
#	148725
#	207870
#
# Disc length: 3157 seconds
#
# Revision: 1
# Processed by: cddbd v1.5.1PL0 Copyright (c) Steve Scherf et al.
# Submitted via: CDex 1.50Beta5
#
DISCID=660c5308
DTITLE=上田 祐司 他 - スターオーシャン セカンドストーリー 船上の受難者
DYEAR=1900
DGENRE=Other
TTITLE0=ハーリー出港
TTITLE1=恋文?
TTITLE2=ファーストコンタクト
TTITLE3=判決
TTITLE4=遁走曲
TTITLE5=不意討ち
TTITLE6=最後の夜
TTITLE7=ヒルトン入港
EXTD=
EXTT0=
EXTT1=
EXTT2=
EXTT3=
EXTT4=
EXTT5=
EXTT6=
EXTT7=
PLAYORDER=
